<mxfile host="65bd71144e">
    <diagram id="-GQy1yfKuPswmwrt2wSu" name="Page-1">
        <mxGraphModel dx="986" dy="351" grid="1" gridSize="10" guides="1" tooltips="1" connect="1" arrows="1" fold="1" page="1" pageScale="1" pageWidth="850" pageHeight="1100" math="0" shadow="0">
            <root>
                <mxCell id="0"/>
                <mxCell id="1" parent="0"/>
                <mxCell id="2" value="Character" style="swimlane;whiteSpace=wrap;html=1;" parent="1" vertex="1">
                    <mxGeometry x="60" y="30" width="150" height="230" as="geometry"/>
                </mxCell>
                <mxCell id="3" value="+Name: string&lt;br&gt;+Health: int&lt;br&gt;+Damage: int&lt;br&gt;+Speed: int&lt;br&gt;+Chartype: string" style="text;html=1;align=center;verticalAlign=middle;resizable=0;points=[];autosize=1;strokeColor=none;fillColor=none;" parent="2" vertex="1">
                    <mxGeometry x="15" y="40" width="120" height="90" as="geometry"/>
                </mxCell>
                <mxCell id="5" value="Player" style="swimlane;whiteSpace=wrap;html=1;" parent="1" vertex="1">
                    <mxGeometry x="170" y="330" width="115" height="215" as="geometry"/>
                </mxCell>
                <mxCell id="7" value="Attack(): void&lt;br&gt;Parry(): void&lt;br&gt;Display(): void&lt;br&gt;SetName(): void&lt;br&gt;GetName(): string" style="text;html=1;align=center;verticalAlign=middle;resizable=0;points=[];autosize=1;strokeColor=none;fillColor=none;" parent="5" vertex="1">
                    <mxGeometry x="-5" y="125" width="120" height="90" as="geometry"/>
                </mxCell>
                <mxCell id="9" value="+items: List&amp;lt;item&amp;gt;" style="text;html=1;align=center;verticalAlign=middle;resizable=0;points=[];autosize=1;strokeColor=none;fillColor=none;" parent="5" vertex="1">
                    <mxGeometry x="-5" y="25" width="120" height="30" as="geometry"/>
                </mxCell>
                <mxCell id="8" value="" style="endArrow=none;html=1;" parent="5" edge="1">
                    <mxGeometry width="50" height="50" relative="1" as="geometry">
                        <mxPoint y="125" as="sourcePoint"/>
                        <mxPoint x="115" y="125" as="targetPoint"/>
                    </mxGeometry>
                </mxCell>
                <mxCell id="24" style="edgeStyle=none;html=1;exitX=0.5;exitY=0;exitDx=0;exitDy=0;" parent="1" source="10" edge="1">
                    <mxGeometry relative="1" as="geometry">
                        <mxPoint x="120" y="260" as="targetPoint"/>
                        <Array as="points">
                            <mxPoint x="73" y="300"/>
                            <mxPoint x="120" y="300"/>
                        </Array>
                    </mxGeometry>
                </mxCell>
                <mxCell id="10" value="Enemy" style="swimlane;whiteSpace=wrap;html=1;" parent="1" vertex="1">
                    <mxGeometry x="10" y="330" width="125" height="200" as="geometry"/>
                </mxCell>
                <mxCell id="23" value="Attack(): void&lt;br&gt;Specialattack(): void" style="text;html=1;align=center;verticalAlign=middle;resizable=0;points=[];autosize=1;strokeColor=none;fillColor=none;" parent="10" vertex="1">
                    <mxGeometry x="-5" y="100" width="130" height="40" as="geometry"/>
                </mxCell>
                <mxCell id="25" value="" style="endArrow=none;html=1;" edge="1" parent="10">
                    <mxGeometry width="50" height="50" relative="1" as="geometry">
                        <mxPoint y="70" as="sourcePoint"/>
                        <mxPoint x="125" y="70" as="targetPoint"/>
                    </mxGeometry>
                </mxCell>
                <mxCell id="11" value="" style="endArrow=classic;html=1;exitX=0.5;exitY=0;exitDx=0;exitDy=0;entryX=0.75;entryY=1;entryDx=0;entryDy=0;" parent="1" source="5" target="2" edge="1">
                    <mxGeometry width="50" height="50" relative="1" as="geometry">
                        <mxPoint x="450" y="500" as="sourcePoint"/>
                        <mxPoint x="320" y="280" as="targetPoint"/>
                        <Array as="points">
                            <mxPoint x="228" y="300"/>
                            <mxPoint x="173" y="300"/>
                        </Array>
                    </mxGeometry>
                </mxCell>
            </root>
        </mxGraphModel>
    </diagram>
</mxfile>